0
SECTION
2
TABLES
0
TABLE
2
LAYER
70
7
0
LAYER
2
KMZ-FOLHA
70
0
62
8
6
CONTINUOUS
0
LAYER
2
KMZ-MOLDURA
70
0
62
7
6
CONTINUOUS
0
LAYER
2
KMZ-CARIMBO
70
0
62
7
6
CONTINUOUS
0
LAYER
2
KMZ-CARIMBO-DIV
70
0
62
8
6
CONTINUOUS
0
LAYER
2
KMZ-REVISOES
70
0
62
8
6
CONTINUOUS
0
LAYER
2
KMZ-ROTULO
70
0
62
4
6
CONTINUOUS
0
LAYER
2
KMZ-MARCA
70
0
62
2
6
CONTINUOUS
0
ENDTAB
0
ENDSEC
0
SECTION
2
ENTITIES
0
LINE
8
KMZ-FOLHA
10
0.0000
20
0.0000
30
0.0
11
1189.0000
21
0.0000
31
0.0
0
LINE
8
KMZ-FOLHA
10
1189.0000
20
0.0000
30
0.0
11
1189.0000
21
841.0000
31
0.0
0
LINE
8
KMZ-FOLHA
10
1189.0000
20
841.0000
30
0.0
11
0.0000
21
841.0000
31
0.0
0
LINE
8
KMZ-FOLHA
10
0.0000
20
841.0000
30
0.0
11
0.0000
21
0.0000
31
0.0
0
LINE
8
KMZ-MOLDURA
10
20.0000
20
10.0000
30
0.0
11
1179.0000
21
10.0000
31
0.0
0
LINE
8
KMZ-MOLDURA
10
1179.0000
20
10.0000
30
0.0
11
1179.0000
21
831.0000
31
0.0
0
LINE
8
KMZ-MOLDURA
10
1179.0000
20
831.0000
30
0.0
11
20.0000
21
831.0000
31
0.0
0
LINE
8
KMZ-MOLDURA
10
20.0000
20
831.0000
30
0.0
11
20.0000
21
10.0000
31
0.0
0
LINE
8
KMZ-CARIMBO
10
1004.0000
20
10.0000
30
0.0
11
1179.0000
21
10.0000
31
0.0
0
LINE
8
KMZ-CARIMBO
10
1179.0000
20
10.0000
30
0.0
11
1179.0000
21
75.0000
31
0.0
0
LINE
8
KMZ-CARIMBO
10
1179.0000
20
75.0000
30
0.0
11
1004.0000
21
75.0000
31
0.0
0
LINE
8
KMZ-CARIMBO
10
1004.0000
20
75.0000
30
0.0
11
1004.0000
21
10.0000
31
0.0
0
LINE
8
KMZ-CARIMBO-DIV
10
1004.0000
20
59.0000
30
0.0
11
1179.0000
21
59.0000
31
0.0
0
LINE
8
KMZ-CARIMBO-DIV
10
1004.0000
20
48.0000
30
0.0
11
1179.0000
21
48.0000
31
0.0
0
LINE
8
KMZ-CARIMBO-DIV
10
1004.0000
20
22.0000
30
0.0
11
1179.0000
21
22.0000
31
0.0
0
LINE
8
KMZ-MARCA
10
1004.0000
20
59.0000
30
0.0
11
1179.0000
21
59.0000
31
0.0
0
LINE
8
KMZ-CARIMBO-DIV
10
1059.0000
20
59.0000
30
0.0
11
1059.0000
21
75.0000
31
0.0
0
LINE
8
KMZ-CARIMBO-DIV
10
1124.0000
20
48.0000
30
0.0
11
1124.0000
21
59.0000
31
0.0
0
LINE
8
KMZ-CARIMBO-DIV
10
1044.0000
20
22.0000
30
0.0
11
1044.0000
21
48.0000
31
0.0
0
LINE
8
KMZ-CARIMBO-DIV
10
1084.0000
20
22.0000
30
0.0
11
1084.0000
21
48.0000
31
0.0
0
LINE
8
KMZ-CARIMBO-DIV
10
1124.0000
20
22.0000
30
0.0
11
1124.0000
21
48.0000
31
0.0
0
LINE
8
KMZ-CARIMBO-DIV
10
1059.0000
20
10.0000
30
0.0
11
1059.0000
21
22.0000
31
0.0
0
LINE
8
KMZ-CARIMBO-DIV
10
1089.0000
20
10.0000
30
0.0
11
1089.0000
21
22.0000
31
0.0
0
LINE
8
KMZ-CARIMBO-DIV
10
1109.0000
20
10.0000
30
0.0
11
1109.0000
21
22.0000
31
0.0
0
LINE
8
KMZ-CARIMBO-DIV
10
1139.0000
20
10.0000
30
0.0
11
1139.0000
21
22.0000
31
0.0
0
LINE
8
KMZ-MARCA
10
1008.0000
20
62.0000
30
0.0
11
1055.0000
21
62.0000
31
0.0
0
LINE
8
KMZ-MARCA
10
1055.0000
20
62.0000
30
0.0
11
1055.0000
21
72.0000
31
0.0
0
LINE
8
KMZ-MARCA
10
1055.0000
20
72.0000
30
0.0
11
1008.0000
21
72.0000
31
0.0
0
LINE
8
KMZ-MARCA
10
1008.0000
20
72.0000
30
0.0
11
1008.0000
21
62.0000
31
0.0
0
TEXT
8
KMZ-MARCA
10
1010.0000
20
65.0000
30
0.0
40
3.0000
1
LOGO KMZERO
0
TEXT
8
KMZ-ROTULO
10
1061.0000
20
71.0000
30
0.0
40
2.5000
1
NOME DA PRANCHA
0
TEXT
8
KMZ-ROTULO
10
1006.0000
20
55.0000
30
0.0
40
2.5000
1
OBRA / CONTRATO
0
TEXT
8
KMZ-ROTULO
10
1126.0000
20
55.0000
30
0.0
40
2.5000
1
STATUS
0
TEXT
8
KMZ-ROTULO
10
1006.0000
20
44.0000
30
0.0
40
2.5000
1
ELABOROU
0
TEXT
8
KMZ-ROTULO
10
1046.0000
20
44.0000
30
0.0
40
2.5000
1
VERIFICOU
0
TEXT
8
KMZ-ROTULO
10
1086.0000
20
44.0000
30
0.0
40
2.5000
1
APROVOU
0
TEXT
8
KMZ-ROTULO
10
1126.0000
20
44.0000
30
0.0
40
2.5000
1
RESPONSAVEL TECNICO / CREA
0
TEXT
8
KMZ-ROTULO
10
1006.0000
20
18.0000
30
0.0
40
2.5000
1
DOCUMENTO No
0
TEXT
8
KMZ-ROTULO
10
1061.0000
20
18.0000
30
0.0
40
2.5000
1
DATA
0
TEXT
8
KMZ-ROTULO
10
1091.0000
20
18.0000
30
0.0
40
2.5000
1
REV
0
TEXT
8
KMZ-ROTULO
10
1111.0000
20
18.0000
30
0.0
40
2.5000
1
ESCALA
0
TEXT
8
KMZ-ROTULO
10
1141.0000
20
18.0000
30
0.0
40
2.5000
1
FOLHA
0
LINE
8
KMZ-REVISOES
10
1004.0000
20
75.0000
30
0.0
11
1179.0000
21
75.0000
31
0.0
0
LINE
8
KMZ-REVISOES
10
1179.0000
20
75.0000
30
0.0
11
1179.0000
21
112.0000
31
0.0
0
LINE
8
KMZ-REVISOES
10
1179.0000
20
112.0000
30
0.0
11
1004.0000
21
112.0000
31
0.0
0
LINE
8
KMZ-REVISOES
10
1004.0000
20
112.0000
30
0.0
11
1004.0000
21
75.0000
31
0.0
0
LINE
8
KMZ-REVISOES
10
1004.0000
20
82.0000
30
0.0
11
1179.0000
21
82.0000
31
0.0
0
LINE
8
KMZ-REVISOES
10
1004.0000
20
88.0000
30
0.0
11
1179.0000
21
88.0000
31
0.0
0
LINE
8
KMZ-REVISOES
10
1004.0000
20
94.0000
30
0.0
11
1179.0000
21
94.0000
31
0.0
0
LINE
8
KMZ-REVISOES
10
1004.0000
20
100.0000
30
0.0
11
1179.0000
21
100.0000
31
0.0
0
LINE
8
KMZ-REVISOES
10
1004.0000
20
106.0000
30
0.0
11
1179.0000
21
106.0000
31
0.0
0
TEXT
8
KMZ-ROTULO
10
1005.5000
20
77.0000
30
0.0
40
2.5000
1
REV
0
LINE
8
KMZ-REVISOES
10
1019.0000
20
75.0000
30
0.0
11
1019.0000
21
112.0000
31
0.0
0
TEXT
8
KMZ-ROTULO
10
1020.5000
20
77.0000
30
0.0
40
2.5000
1
DATA
0
LINE
8
KMZ-REVISOES
10
1044.0000
20
75.0000
30
0.0
11
1044.0000
21
112.0000
31
0.0
0
TEXT
8
KMZ-ROTULO
10
1045.5000
20
77.0000
30
0.0
40
2.5000
1
DESCRICAO
0
LINE
8
KMZ-REVISOES
10
1109.0000
20
75.0000
30
0.0
11
1109.0000
21
112.0000
31
0.0
0
TEXT
8
KMZ-ROTULO
10
1110.5000
20
77.0000
30
0.0
40
2.5000
1
ELABOROU
0
LINE
8
KMZ-REVISOES
10
1132.0000
20
75.0000
30
0.0
11
1132.0000
21
112.0000
31
0.0
0
TEXT
8
KMZ-ROTULO
10
1133.5000
20
77.0000
30
0.0
40
2.5000
1
VERIFICOU
0
LINE
8
KMZ-REVISOES
10
1155.0000
20
75.0000
30
0.0
11
1155.0000
21
112.0000
31
0.0
0
TEXT
8
KMZ-ROTULO
10
1156.5000
20
77.0000
30
0.0
40
2.5000
1
APROVOU
0
TEXT
8
KMZ-ROTULO
10
22.0000
20
826.0000
30
0.0
40
3.5000
1
KMZ-PRANCHA-A0
0
ENDSEC
0
EOF
