0
SECTION
2
TABLES
0
TABLE
2
LAYER
70
7
0
LAYER
2
KMZ-FOLHA
70
0
62
8
6
CONTINUOUS
0
LAYER
2
KMZ-MOLDURA
70
0
62
7
6
CONTINUOUS
0
LAYER
2
KMZ-CARIMBO
70
0
62
7
6
CONTINUOUS
0
LAYER
2
KMZ-CARIMBO-DIV
70
0
62
8
6
CONTINUOUS
0
LAYER
2
KMZ-REVISOES
70
0
62
8
6
CONTINUOUS
0
LAYER
2
KMZ-ROTULO
70
0
62
4
6
CONTINUOUS
0
LAYER
2
KMZ-MARCA
70
0
62
2
6
CONTINUOUS
0
ENDTAB
0
ENDSEC
0
SECTION
2
ENTITIES
0
LINE
8
KMZ-CARIMBO
10
0.0000
20
0.0000
30
0.0
11
175.0000
21
0.0000
31
0.0
0
LINE
8
KMZ-CARIMBO
10
175.0000
20
0.0000
30
0.0
11
175.0000
21
65.0000
31
0.0
0
LINE
8
KMZ-CARIMBO
10
175.0000
20
65.0000
30
0.0
11
0.0000
21
65.0000
31
0.0
0
LINE
8
KMZ-CARIMBO
10
0.0000
20
65.0000
30
0.0
11
0.0000
21
0.0000
31
0.0
0
LINE
8
KMZ-CARIMBO-DIV
10
0.0000
20
49.0000
30
0.0
11
175.0000
21
49.0000
31
0.0
0
LINE
8
KMZ-CARIMBO-DIV
10
0.0000
20
38.0000
30
0.0
11
175.0000
21
38.0000
31
0.0
0
LINE
8
KMZ-CARIMBO-DIV
10
0.0000
20
12.0000
30
0.0
11
175.0000
21
12.0000
31
0.0
0
LINE
8
KMZ-MARCA
10
0.0000
20
49.0000
30
0.0
11
175.0000
21
49.0000
31
0.0
0
LINE
8
KMZ-CARIMBO-DIV
10
55.0000
20
49.0000
30
0.0
11
55.0000
21
65.0000
31
0.0
0
LINE
8
KMZ-CARIMBO-DIV
10
120.0000
20
38.0000
30
0.0
11
120.0000
21
49.0000
31
0.0
0
LINE
8
KMZ-CARIMBO-DIV
10
40.0000
20
12.0000
30
0.0
11
40.0000
21
38.0000
31
0.0
0
LINE
8
KMZ-CARIMBO-DIV
10
80.0000
20
12.0000
30
0.0
11
80.0000
21
38.0000
31
0.0
0
LINE
8
KMZ-CARIMBO-DIV
10
120.0000
20
12.0000
30
0.0
11
120.0000
21
38.0000
31
0.0
0
LINE
8
KMZ-CARIMBO-DIV
10
55.0000
20
0.0000
30
0.0
11
55.0000
21
12.0000
31
0.0
0
LINE
8
KMZ-CARIMBO-DIV
10
85.0000
20
0.0000
30
0.0
11
85.0000
21
12.0000
31
0.0
0
LINE
8
KMZ-CARIMBO-DIV
10
105.0000
20
0.0000
30
0.0
11
105.0000
21
12.0000
31
0.0
0
LINE
8
KMZ-CARIMBO-DIV
10
135.0000
20
0.0000
30
0.0
11
135.0000
21
12.0000
31
0.0
0
LINE
8
KMZ-MARCA
10
4.0000
20
52.0000
30
0.0
11
51.0000
21
52.0000
31
0.0
0
LINE
8
KMZ-MARCA
10
51.0000
20
52.0000
30
0.0
11
51.0000
21
62.0000
31
0.0
0
LINE
8
KMZ-MARCA
10
51.0000
20
62.0000
30
0.0
11
4.0000
21
62.0000
31
0.0
0
LINE
8
KMZ-MARCA
10
4.0000
20
62.0000
30
0.0
11
4.0000
21
52.0000
31
0.0
0
TEXT
8
KMZ-MARCA
10
6.0000
20
55.0000
30
0.0
40
3.0000
1
LOGO KMZERO
0
TEXT
8
KMZ-ROTULO
10
57.0000
20
61.0000
30
0.0
40
2.5000
1
NOME DA PRANCHA
0
TEXT
8
KMZ-ROTULO
10
2.0000
20
45.0000
30
0.0
40
2.5000
1
OBRA / CONTRATO
0
TEXT
8
KMZ-ROTULO
10
122.0000
20
45.0000
30
0.0
40
2.5000
1
STATUS
0
TEXT
8
KMZ-ROTULO
10
2.0000
20
34.0000
30
0.0
40
2.5000
1
ELABOROU
0
TEXT
8
KMZ-ROTULO
10
42.0000
20
34.0000
30
0.0
40
2.5000
1
VERIFICOU
0
TEXT
8
KMZ-ROTULO
10
82.0000
20
34.0000
30
0.0
40
2.5000
1
APROVOU
0
TEXT
8
KMZ-ROTULO
10
122.0000
20
34.0000
30
0.0
40
2.5000
1
RESPONSAVEL TECNICO / CREA
0
TEXT
8
KMZ-ROTULO
10
2.0000
20
8.0000
30
0.0
40
2.5000
1
DOCUMENTO No
0
TEXT
8
KMZ-ROTULO
10
57.0000
20
8.0000
30
0.0
40
2.5000
1
DATA
0
TEXT
8
KMZ-ROTULO
10
87.0000
20
8.0000
30
0.0
40
2.5000
1
REV
0
TEXT
8
KMZ-ROTULO
10
107.0000
20
8.0000
30
0.0
40
2.5000
1
ESCALA
0
TEXT
8
KMZ-ROTULO
10
137.0000
20
8.0000
30
0.0
40
2.5000
1
FOLHA
0
LINE
8
KMZ-REVISOES
10
0.0000
20
65.0000
30
0.0
11
175.0000
21
65.0000
31
0.0
0
LINE
8
KMZ-REVISOES
10
175.0000
20
65.0000
30
0.0
11
175.0000
21
102.0000
31
0.0
0
LINE
8
KMZ-REVISOES
10
175.0000
20
102.0000
30
0.0
11
0.0000
21
102.0000
31
0.0
0
LINE
8
KMZ-REVISOES
10
0.0000
20
102.0000
30
0.0
11
0.0000
21
65.0000
31
0.0
0
LINE
8
KMZ-REVISOES
10
0.0000
20
72.0000
30
0.0
11
175.0000
21
72.0000
31
0.0
0
LINE
8
KMZ-REVISOES
10
0.0000
20
78.0000
30
0.0
11
175.0000
21
78.0000
31
0.0
0
LINE
8
KMZ-REVISOES
10
0.0000
20
84.0000
30
0.0
11
175.0000
21
84.0000
31
0.0
0
LINE
8
KMZ-REVISOES
10
0.0000
20
90.0000
30
0.0
11
175.0000
21
90.0000
31
0.0
0
LINE
8
KMZ-REVISOES
10
0.0000
20
96.0000
30
0.0
11
175.0000
21
96.0000
31
0.0
0
TEXT
8
KMZ-ROTULO
10
1.5000
20
67.0000
30
0.0
40
2.5000
1
REV
0
LINE
8
KMZ-REVISOES
10
15.0000
20
65.0000
30
0.0
11
15.0000
21
102.0000
31
0.0
0
TEXT
8
KMZ-ROTULO
10
16.5000
20
67.0000
30
0.0
40
2.5000
1
DATA
0
LINE
8
KMZ-REVISOES
10
40.0000
20
65.0000
30
0.0
11
40.0000
21
102.0000
31
0.0
0
TEXT
8
KMZ-ROTULO
10
41.5000
20
67.0000
30
0.0
40
2.5000
1
DESCRICAO
0
LINE
8
KMZ-REVISOES
10
105.0000
20
65.0000
30
0.0
11
105.0000
21
102.0000
31
0.0
0
TEXT
8
KMZ-ROTULO
10
106.5000
20
67.0000
30
0.0
40
2.5000
1
ELABOROU
0
LINE
8
KMZ-REVISOES
10
128.0000
20
65.0000
30
0.0
11
128.0000
21
102.0000
31
0.0
0
TEXT
8
KMZ-ROTULO
10
129.5000
20
67.0000
30
0.0
40
2.5000
1
VERIFICOU
0
LINE
8
KMZ-REVISOES
10
151.0000
20
65.0000
30
0.0
11
151.0000
21
102.0000
31
0.0
0
TEXT
8
KMZ-ROTULO
10
152.5000
20
67.0000
30
0.0
40
2.5000
1
APROVOU
0
ENDSEC
0
EOF
