0
SECTION
2
TABLES
0
TABLE
2
LAYER
70
7
0
LAYER
2
KMZ-FOLHA
70
0
62
8
6
CONTINUOUS
0
LAYER
2
KMZ-MOLDURA
70
0
62
7
6
CONTINUOUS
0
LAYER
2
KMZ-CARIMBO
70
0
62
7
6
CONTINUOUS
0
LAYER
2
KMZ-CARIMBO-DIV
70
0
62
8
6
CONTINUOUS
0
LAYER
2
KMZ-REVISOES
70
0
62
8
6
CONTINUOUS
0
LAYER
2
KMZ-ROTULO
70
0
62
4
6
CONTINUOUS
0
LAYER
2
KMZ-MARCA
70
0
62
2
6
CONTINUOUS
0
ENDTAB
0
ENDSEC
0
SECTION
2
ENTITIES
0
LINE
8
KMZ-FOLHA
10
0.0000
20
0.0000
30
0.0
11
297.0000
21
0.0000
31
0.0
0
LINE
8
KMZ-FOLHA
10
297.0000
20
0.0000
30
0.0
11
297.0000
21
210.0000
31
0.0
0
LINE
8
KMZ-FOLHA
10
297.0000
20
210.0000
30
0.0
11
0.0000
21
210.0000
31
0.0
0
LINE
8
KMZ-FOLHA
10
0.0000
20
210.0000
30
0.0
11
0.0000
21
0.0000
31
0.0
0
LINE
8
KMZ-MOLDURA
10
20.0000
20
10.0000
30
0.0
11
287.0000
21
10.0000
31
0.0
0
LINE
8
KMZ-MOLDURA
10
287.0000
20
10.0000
30
0.0
11
287.0000
21
200.0000
31
0.0
0
LINE
8
KMZ-MOLDURA
10
287.0000
20
200.0000
30
0.0
11
20.0000
21
200.0000
31
0.0
0
LINE
8
KMZ-MOLDURA
10
20.0000
20
200.0000
30
0.0
11
20.0000
21
10.0000
31
0.0
0
LINE
8
KMZ-CARIMBO
10
112.0000
20
10.0000
30
0.0
11
287.0000
21
10.0000
31
0.0
0
LINE
8
KMZ-CARIMBO
10
287.0000
20
10.0000
30
0.0
11
287.0000
21
75.0000
31
0.0
0
LINE
8
KMZ-CARIMBO
10
287.0000
20
75.0000
30
0.0
11
112.0000
21
75.0000
31
0.0
0
LINE
8
KMZ-CARIMBO
10
112.0000
20
75.0000
30
0.0
11
112.0000
21
10.0000
31
0.0
0
LINE
8
KMZ-CARIMBO-DIV
10
112.0000
20
59.0000
30
0.0
11
287.0000
21
59.0000
31
0.0
0
LINE
8
KMZ-CARIMBO-DIV
10
112.0000
20
48.0000
30
0.0
11
287.0000
21
48.0000
31
0.0
0
LINE
8
KMZ-CARIMBO-DIV
10
112.0000
20
22.0000
30
0.0
11
287.0000
21
22.0000
31
0.0
0
LINE
8
KMZ-MARCA
10
112.0000
20
59.0000
30
0.0
11
287.0000
21
59.0000
31
0.0
0
LINE
8
KMZ-CARIMBO-DIV
10
167.0000
20
59.0000
30
0.0
11
167.0000
21
75.0000
31
0.0
0
LINE
8
KMZ-CARIMBO-DIV
10
232.0000
20
48.0000
30
0.0
11
232.0000
21
59.0000
31
0.0
0
LINE
8
KMZ-CARIMBO-DIV
10
152.0000
20
22.0000
30
0.0
11
152.0000
21
48.0000
31
0.0
0
LINE
8
KMZ-CARIMBO-DIV
10
192.0000
20
22.0000
30
0.0
11
192.0000
21
48.0000
31
0.0
0
LINE
8
KMZ-CARIMBO-DIV
10
232.0000
20
22.0000
30
0.0
11
232.0000
21
48.0000
31
0.0
0
LINE
8
KMZ-CARIMBO-DIV
10
167.0000
20
10.0000
30
0.0
11
167.0000
21
22.0000
31
0.0
0
LINE
8
KMZ-CARIMBO-DIV
10
197.0000
20
10.0000
30
0.0
11
197.0000
21
22.0000
31
0.0
0
LINE
8
KMZ-CARIMBO-DIV
10
217.0000
20
10.0000
30
0.0
11
217.0000
21
22.0000
31
0.0
0
LINE
8
KMZ-CARIMBO-DIV
10
247.0000
20
10.0000
30
0.0
11
247.0000
21
22.0000
31
0.0
0
LINE
8
KMZ-MARCA
10
116.0000
20
62.0000
30
0.0
11
163.0000
21
62.0000
31
0.0
0
LINE
8
KMZ-MARCA
10
163.0000
20
62.0000
30
0.0
11
163.0000
21
72.0000
31
0.0
0
LINE
8
KMZ-MARCA
10
163.0000
20
72.0000
30
0.0
11
116.0000
21
72.0000
31
0.0
0
LINE
8
KMZ-MARCA
10
116.0000
20
72.0000
30
0.0
11
116.0000
21
62.0000
31
0.0
0
TEXT
8
KMZ-MARCA
10
118.0000
20
65.0000
30
0.0
40
3.0000
1
LOGO KMZERO
0
TEXT
8
KMZ-ROTULO
10
169.0000
20
71.0000
30
0.0
40
2.5000
1
NOME DA PRANCHA
0
TEXT
8
KMZ-ROTULO
10
114.0000
20
55.0000
30
0.0
40
2.5000
1
OBRA / CONTRATO
0
TEXT
8
KMZ-ROTULO
10
234.0000
20
55.0000
30
0.0
40
2.5000
1
STATUS
0
TEXT
8
KMZ-ROTULO
10
114.0000
20
44.0000
30
0.0
40
2.5000
1
ELABOROU
0
TEXT
8
KMZ-ROTULO
10
154.0000
20
44.0000
30
0.0
40
2.5000
1
VERIFICOU
0
TEXT
8
KMZ-ROTULO
10
194.0000
20
44.0000
30
0.0
40
2.5000
1
APROVOU
0
TEXT
8
KMZ-ROTULO
10
234.0000
20
44.0000
30
0.0
40
2.5000
1
RESPONSAVEL TECNICO / CREA
0
TEXT
8
KMZ-ROTULO
10
114.0000
20
18.0000
30
0.0
40
2.5000
1
DOCUMENTO No
0
TEXT
8
KMZ-ROTULO
10
169.0000
20
18.0000
30
0.0
40
2.5000
1
DATA
0
TEXT
8
KMZ-ROTULO
10
199.0000
20
18.0000
30
0.0
40
2.5000
1
REV
0
TEXT
8
KMZ-ROTULO
10
219.0000
20
18.0000
30
0.0
40
2.5000
1
ESCALA
0
TEXT
8
KMZ-ROTULO
10
249.0000
20
18.0000
30
0.0
40
2.5000
1
FOLHA
0
LINE
8
KMZ-REVISOES
10
112.0000
20
75.0000
30
0.0
11
287.0000
21
75.0000
31
0.0
0
LINE
8
KMZ-REVISOES
10
287.0000
20
75.0000
30
0.0
11
287.0000
21
112.0000
31
0.0
0
LINE
8
KMZ-REVISOES
10
287.0000
20
112.0000
30
0.0
11
112.0000
21
112.0000
31
0.0
0
LINE
8
KMZ-REVISOES
10
112.0000
20
112.0000
30
0.0
11
112.0000
21
75.0000
31
0.0
0
LINE
8
KMZ-REVISOES
10
112.0000
20
82.0000
30
0.0
11
287.0000
21
82.0000
31
0.0
0
LINE
8
KMZ-REVISOES
10
112.0000
20
88.0000
30
0.0
11
287.0000
21
88.0000
31
0.0
0
LINE
8
KMZ-REVISOES
10
112.0000
20
94.0000
30
0.0
11
287.0000
21
94.0000
31
0.0
0
LINE
8
KMZ-REVISOES
10
112.0000
20
100.0000
30
0.0
11
287.0000
21
100.0000
31
0.0
0
LINE
8
KMZ-REVISOES
10
112.0000
20
106.0000
30
0.0
11
287.0000
21
106.0000
31
0.0
0
TEXT
8
KMZ-ROTULO
10
113.5000
20
77.0000
30
0.0
40
2.5000
1
REV
0
LINE
8
KMZ-REVISOES
10
127.0000
20
75.0000
30
0.0
11
127.0000
21
112.0000
31
0.0
0
TEXT
8
KMZ-ROTULO
10
128.5000
20
77.0000
30
0.0
40
2.5000
1
DATA
0
LINE
8
KMZ-REVISOES
10
152.0000
20
75.0000
30
0.0
11
152.0000
21
112.0000
31
0.0
0
TEXT
8
KMZ-ROTULO
10
153.5000
20
77.0000
30
0.0
40
2.5000
1
DESCRICAO
0
LINE
8
KMZ-REVISOES
10
217.0000
20
75.0000
30
0.0
11
217.0000
21
112.0000
31
0.0
0
TEXT
8
KMZ-ROTULO
10
218.5000
20
77.0000
30
0.0
40
2.5000
1
ELABOROU
0
LINE
8
KMZ-REVISOES
10
240.0000
20
75.0000
30
0.0
11
240.0000
21
112.0000
31
0.0
0
TEXT
8
KMZ-ROTULO
10
241.5000
20
77.0000
30
0.0
40
2.5000
1
VERIFICOU
0
LINE
8
KMZ-REVISOES
10
263.0000
20
75.0000
30
0.0
11
263.0000
21
112.0000
31
0.0
0
TEXT
8
KMZ-ROTULO
10
264.5000
20
77.0000
30
0.0
40
2.5000
1
APROVOU
0
TEXT
8
KMZ-ROTULO
10
22.0000
20
195.0000
30
0.0
40
3.5000
1
KMZ-PRANCHA-A4
0
ENDSEC
0
EOF
