0
SECTION
2
TABLES
0
TABLE
2
LAYER
70
7
0
LAYER
2
KMZ-FOLHA
70
0
62
8
6
CONTINUOUS
0
LAYER
2
KMZ-MOLDURA
70
0
62
7
6
CONTINUOUS
0
LAYER
2
KMZ-CARIMBO
70
0
62
7
6
CONTINUOUS
0
LAYER
2
KMZ-CARIMBO-DIV
70
0
62
8
6
CONTINUOUS
0
LAYER
2
KMZ-REVISOES
70
0
62
8
6
CONTINUOUS
0
LAYER
2
KMZ-ROTULO
70
0
62
4
6
CONTINUOUS
0
LAYER
2
KMZ-MARCA
70
0
62
2
6
CONTINUOUS
0
ENDTAB
0
ENDSEC
0
SECTION
2
ENTITIES
0
LINE
8
KMZ-FOLHA
10
0.0000
20
0.0000
30
0.0
11
594.0000
21
0.0000
31
0.0
0
LINE
8
KMZ-FOLHA
10
594.0000
20
0.0000
30
0.0
11
594.0000
21
420.0000
31
0.0
0
LINE
8
KMZ-FOLHA
10
594.0000
20
420.0000
30
0.0
11
0.0000
21
420.0000
31
0.0
0
LINE
8
KMZ-FOLHA
10
0.0000
20
420.0000
30
0.0
11
0.0000
21
0.0000
31
0.0
0
LINE
8
KMZ-MOLDURA
10
20.0000
20
10.0000
30
0.0
11
584.0000
21
10.0000
31
0.0
0
LINE
8
KMZ-MOLDURA
10
584.0000
20
10.0000
30
0.0
11
584.0000
21
410.0000
31
0.0
0
LINE
8
KMZ-MOLDURA
10
584.0000
20
410.0000
30
0.0
11
20.0000
21
410.0000
31
0.0
0
LINE
8
KMZ-MOLDURA
10
20.0000
20
410.0000
30
0.0
11
20.0000
21
10.0000
31
0.0
0
LINE
8
KMZ-CARIMBO
10
409.0000
20
10.0000
30
0.0
11
584.0000
21
10.0000
31
0.0
0
LINE
8
KMZ-CARIMBO
10
584.0000
20
10.0000
30
0.0
11
584.0000
21
75.0000
31
0.0
0
LINE
8
KMZ-CARIMBO
10
584.0000
20
75.0000
30
0.0
11
409.0000
21
75.0000
31
0.0
0
LINE
8
KMZ-CARIMBO
10
409.0000
20
75.0000
30
0.0
11
409.0000
21
10.0000
31
0.0
0
LINE
8
KMZ-CARIMBO-DIV
10
409.0000
20
59.0000
30
0.0
11
584.0000
21
59.0000
31
0.0
0
LINE
8
KMZ-CARIMBO-DIV
10
409.0000
20
48.0000
30
0.0
11
584.0000
21
48.0000
31
0.0
0
LINE
8
KMZ-CARIMBO-DIV
10
409.0000
20
22.0000
30
0.0
11
584.0000
21
22.0000
31
0.0
0
LINE
8
KMZ-MARCA
10
409.0000
20
59.0000
30
0.0
11
584.0000
21
59.0000
31
0.0
0
LINE
8
KMZ-CARIMBO-DIV
10
464.0000
20
59.0000
30
0.0
11
464.0000
21
75.0000
31
0.0
0
LINE
8
KMZ-CARIMBO-DIV
10
529.0000
20
48.0000
30
0.0
11
529.0000
21
59.0000
31
0.0
0
LINE
8
KMZ-CARIMBO-DIV
10
449.0000
20
22.0000
30
0.0
11
449.0000
21
48.0000
31
0.0
0
LINE
8
KMZ-CARIMBO-DIV
10
489.0000
20
22.0000
30
0.0
11
489.0000
21
48.0000
31
0.0
0
LINE
8
KMZ-CARIMBO-DIV
10
529.0000
20
22.0000
30
0.0
11
529.0000
21
48.0000
31
0.0
0
LINE
8
KMZ-CARIMBO-DIV
10
464.0000
20
10.0000
30
0.0
11
464.0000
21
22.0000
31
0.0
0
LINE
8
KMZ-CARIMBO-DIV
10
494.0000
20
10.0000
30
0.0
11
494.0000
21
22.0000
31
0.0
0
LINE
8
KMZ-CARIMBO-DIV
10
514.0000
20
10.0000
30
0.0
11
514.0000
21
22.0000
31
0.0
0
LINE
8
KMZ-CARIMBO-DIV
10
544.0000
20
10.0000
30
0.0
11
544.0000
21
22.0000
31
0.0
0
LINE
8
KMZ-MARCA
10
413.0000
20
62.0000
30
0.0
11
460.0000
21
62.0000
31
0.0
0
LINE
8
KMZ-MARCA
10
460.0000
20
62.0000
30
0.0
11
460.0000
21
72.0000
31
0.0
0
LINE
8
KMZ-MARCA
10
460.0000
20
72.0000
30
0.0
11
413.0000
21
72.0000
31
0.0
0
LINE
8
KMZ-MARCA
10
413.0000
20
72.0000
30
0.0
11
413.0000
21
62.0000
31
0.0
0
TEXT
8
KMZ-MARCA
10
415.0000
20
65.0000
30
0.0
40
3.0000
1
LOGO KMZERO
0
TEXT
8
KMZ-ROTULO
10
466.0000
20
71.0000
30
0.0
40
2.5000
1
NOME DA PRANCHA
0
TEXT
8
KMZ-ROTULO
10
411.0000
20
55.0000
30
0.0
40
2.5000
1
OBRA / CONTRATO
0
TEXT
8
KMZ-ROTULO
10
531.0000
20
55.0000
30
0.0
40
2.5000
1
STATUS
0
TEXT
8
KMZ-ROTULO
10
411.0000
20
44.0000
30
0.0
40
2.5000
1
ELABOROU
0
TEXT
8
KMZ-ROTULO
10
451.0000
20
44.0000
30
0.0
40
2.5000
1
VERIFICOU
0
TEXT
8
KMZ-ROTULO
10
491.0000
20
44.0000
30
0.0
40
2.5000
1
APROVOU
0
TEXT
8
KMZ-ROTULO
10
531.0000
20
44.0000
30
0.0
40
2.5000
1
RESPONSAVEL TECNICO / CREA
0
TEXT
8
KMZ-ROTULO
10
411.0000
20
18.0000
30
0.0
40
2.5000
1
DOCUMENTO No
0
TEXT
8
KMZ-ROTULO
10
466.0000
20
18.0000
30
0.0
40
2.5000
1
DATA
0
TEXT
8
KMZ-ROTULO
10
496.0000
20
18.0000
30
0.0
40
2.5000
1
REV
0
TEXT
8
KMZ-ROTULO
10
516.0000
20
18.0000
30
0.0
40
2.5000
1
ESCALA
0
TEXT
8
KMZ-ROTULO
10
546.0000
20
18.0000
30
0.0
40
2.5000
1
FOLHA
0
LINE
8
KMZ-REVISOES
10
409.0000
20
75.0000
30
0.0
11
584.0000
21
75.0000
31
0.0
0
LINE
8
KMZ-REVISOES
10
584.0000
20
75.0000
30
0.0
11
584.0000
21
112.0000
31
0.0
0
LINE
8
KMZ-REVISOES
10
584.0000
20
112.0000
30
0.0
11
409.0000
21
112.0000
31
0.0
0
LINE
8
KMZ-REVISOES
10
409.0000
20
112.0000
30
0.0
11
409.0000
21
75.0000
31
0.0
0
LINE
8
KMZ-REVISOES
10
409.0000
20
82.0000
30
0.0
11
584.0000
21
82.0000
31
0.0
0
LINE
8
KMZ-REVISOES
10
409.0000
20
88.0000
30
0.0
11
584.0000
21
88.0000
31
0.0
0
LINE
8
KMZ-REVISOES
10
409.0000
20
94.0000
30
0.0
11
584.0000
21
94.0000
31
0.0
0
LINE
8
KMZ-REVISOES
10
409.0000
20
100.0000
30
0.0
11
584.0000
21
100.0000
31
0.0
0
LINE
8
KMZ-REVISOES
10
409.0000
20
106.0000
30
0.0
11
584.0000
21
106.0000
31
0.0
0
TEXT
8
KMZ-ROTULO
10
410.5000
20
77.0000
30
0.0
40
2.5000
1
REV
0
LINE
8
KMZ-REVISOES
10
424.0000
20
75.0000
30
0.0
11
424.0000
21
112.0000
31
0.0
0
TEXT
8
KMZ-ROTULO
10
425.5000
20
77.0000
30
0.0
40
2.5000
1
DATA
0
LINE
8
KMZ-REVISOES
10
449.0000
20
75.0000
30
0.0
11
449.0000
21
112.0000
31
0.0
0
TEXT
8
KMZ-ROTULO
10
450.5000
20
77.0000
30
0.0
40
2.5000
1
DESCRICAO
0
LINE
8
KMZ-REVISOES
10
514.0000
20
75.0000
30
0.0
11
514.0000
21
112.0000
31
0.0
0
TEXT
8
KMZ-ROTULO
10
515.5000
20
77.0000
30
0.0
40
2.5000
1
ELABOROU
0
LINE
8
KMZ-REVISOES
10
537.0000
20
75.0000
30
0.0
11
537.0000
21
112.0000
31
0.0
0
TEXT
8
KMZ-ROTULO
10
538.5000
20
77.0000
30
0.0
40
2.5000
1
VERIFICOU
0
LINE
8
KMZ-REVISOES
10
560.0000
20
75.0000
30
0.0
11
560.0000
21
112.0000
31
0.0
0
TEXT
8
KMZ-ROTULO
10
561.5000
20
77.0000
30
0.0
40
2.5000
1
APROVOU
0
TEXT
8
KMZ-ROTULO
10
22.0000
20
405.0000
30
0.0
40
3.5000
1
KMZ-PRANCHA-A2
0
ENDSEC
0
EOF
