0
SECTION
2
TABLES
0
TABLE
2
LAYER
70
7
0
LAYER
2
KMZ-FOLHA
70
0
62
8
6
CONTINUOUS
0
LAYER
2
KMZ-MOLDURA
70
0
62
7
6
CONTINUOUS
0
LAYER
2
KMZ-CARIMBO
70
0
62
7
6
CONTINUOUS
0
LAYER
2
KMZ-CARIMBO-DIV
70
0
62
8
6
CONTINUOUS
0
LAYER
2
KMZ-REVISOES
70
0
62
8
6
CONTINUOUS
0
LAYER
2
KMZ-ROTULO
70
0
62
4
6
CONTINUOUS
0
LAYER
2
KMZ-MARCA
70
0
62
2
6
CONTINUOUS
0
ENDTAB
0
ENDSEC
0
SECTION
2
ENTITIES
0
LINE
8
KMZ-FOLHA
10
0.0000
20
0.0000
30
0.0
11
841.0000
21
0.0000
31
0.0
0
LINE
8
KMZ-FOLHA
10
841.0000
20
0.0000
30
0.0
11
841.0000
21
594.0000
31
0.0
0
LINE
8
KMZ-FOLHA
10
841.0000
20
594.0000
30
0.0
11
0.0000
21
594.0000
31
0.0
0
LINE
8
KMZ-FOLHA
10
0.0000
20
594.0000
30
0.0
11
0.0000
21
0.0000
31
0.0
0
LINE
8
KMZ-MOLDURA
10
20.0000
20
10.0000
30
0.0
11
831.0000
21
10.0000
31
0.0
0
LINE
8
KMZ-MOLDURA
10
831.0000
20
10.0000
30
0.0
11
831.0000
21
584.0000
31
0.0
0
LINE
8
KMZ-MOLDURA
10
831.0000
20
584.0000
30
0.0
11
20.0000
21
584.0000
31
0.0
0
LINE
8
KMZ-MOLDURA
10
20.0000
20
584.0000
30
0.0
11
20.0000
21
10.0000
31
0.0
0
LINE
8
KMZ-CARIMBO
10
656.0000
20
10.0000
30
0.0
11
831.0000
21
10.0000
31
0.0
0
LINE
8
KMZ-CARIMBO
10
831.0000
20
10.0000
30
0.0
11
831.0000
21
75.0000
31
0.0
0
LINE
8
KMZ-CARIMBO
10
831.0000
20
75.0000
30
0.0
11
656.0000
21
75.0000
31
0.0
0
LINE
8
KMZ-CARIMBO
10
656.0000
20
75.0000
30
0.0
11
656.0000
21
10.0000
31
0.0
0
LINE
8
KMZ-CARIMBO-DIV
10
656.0000
20
59.0000
30
0.0
11
831.0000
21
59.0000
31
0.0
0
LINE
8
KMZ-CARIMBO-DIV
10
656.0000
20
48.0000
30
0.0
11
831.0000
21
48.0000
31
0.0
0
LINE
8
KMZ-CARIMBO-DIV
10
656.0000
20
22.0000
30
0.0
11
831.0000
21
22.0000
31
0.0
0
LINE
8
KMZ-MARCA
10
656.0000
20
59.0000
30
0.0
11
831.0000
21
59.0000
31
0.0
0
LINE
8
KMZ-CARIMBO-DIV
10
711.0000
20
59.0000
30
0.0
11
711.0000
21
75.0000
31
0.0
0
LINE
8
KMZ-CARIMBO-DIV
10
776.0000
20
48.0000
30
0.0
11
776.0000
21
59.0000
31
0.0
0
LINE
8
KMZ-CARIMBO-DIV
10
696.0000
20
22.0000
30
0.0
11
696.0000
21
48.0000
31
0.0
0
LINE
8
KMZ-CARIMBO-DIV
10
736.0000
20
22.0000
30
0.0
11
736.0000
21
48.0000
31
0.0
0
LINE
8
KMZ-CARIMBO-DIV
10
776.0000
20
22.0000
30
0.0
11
776.0000
21
48.0000
31
0.0
0
LINE
8
KMZ-CARIMBO-DIV
10
711.0000
20
10.0000
30
0.0
11
711.0000
21
22.0000
31
0.0
0
LINE
8
KMZ-CARIMBO-DIV
10
741.0000
20
10.0000
30
0.0
11
741.0000
21
22.0000
31
0.0
0
LINE
8
KMZ-CARIMBO-DIV
10
761.0000
20
10.0000
30
0.0
11
761.0000
21
22.0000
31
0.0
0
LINE
8
KMZ-CARIMBO-DIV
10
791.0000
20
10.0000
30
0.0
11
791.0000
21
22.0000
31
0.0
0
LINE
8
KMZ-MARCA
10
660.0000
20
62.0000
30
0.0
11
707.0000
21
62.0000
31
0.0
0
LINE
8
KMZ-MARCA
10
707.0000
20
62.0000
30
0.0
11
707.0000
21
72.0000
31
0.0
0
LINE
8
KMZ-MARCA
10
707.0000
20
72.0000
30
0.0
11
660.0000
21
72.0000
31
0.0
0
LINE
8
KMZ-MARCA
10
660.0000
20
72.0000
30
0.0
11
660.0000
21
62.0000
31
0.0
0
TEXT
8
KMZ-MARCA
10
662.0000
20
65.0000
30
0.0
40
3.0000
1
LOGO KMZERO
0
TEXT
8
KMZ-ROTULO
10
713.0000
20
71.0000
30
0.0
40
2.5000
1
NOME DA PRANCHA
0
TEXT
8
KMZ-ROTULO
10
658.0000
20
55.0000
30
0.0
40
2.5000
1
OBRA / CONTRATO
0
TEXT
8
KMZ-ROTULO
10
778.0000
20
55.0000
30
0.0
40
2.5000
1
STATUS
0
TEXT
8
KMZ-ROTULO
10
658.0000
20
44.0000
30
0.0
40
2.5000
1
ELABOROU
0
TEXT
8
KMZ-ROTULO
10
698.0000
20
44.0000
30
0.0
40
2.5000
1
VERIFICOU
0
TEXT
8
KMZ-ROTULO
10
738.0000
20
44.0000
30
0.0
40
2.5000
1
APROVOU
0
TEXT
8
KMZ-ROTULO
10
778.0000
20
44.0000
30
0.0
40
2.5000
1
RESPONSAVEL TECNICO / CREA
0
TEXT
8
KMZ-ROTULO
10
658.0000
20
18.0000
30
0.0
40
2.5000
1
DOCUMENTO No
0
TEXT
8
KMZ-ROTULO
10
713.0000
20
18.0000
30
0.0
40
2.5000
1
DATA
0
TEXT
8
KMZ-ROTULO
10
743.0000
20
18.0000
30
0.0
40
2.5000
1
REV
0
TEXT
8
KMZ-ROTULO
10
763.0000
20
18.0000
30
0.0
40
2.5000
1
ESCALA
0
TEXT
8
KMZ-ROTULO
10
793.0000
20
18.0000
30
0.0
40
2.5000
1
FOLHA
0
LINE
8
KMZ-REVISOES
10
656.0000
20
75.0000
30
0.0
11
831.0000
21
75.0000
31
0.0
0
LINE
8
KMZ-REVISOES
10
831.0000
20
75.0000
30
0.0
11
831.0000
21
112.0000
31
0.0
0
LINE
8
KMZ-REVISOES
10
831.0000
20
112.0000
30
0.0
11
656.0000
21
112.0000
31
0.0
0
LINE
8
KMZ-REVISOES
10
656.0000
20
112.0000
30
0.0
11
656.0000
21
75.0000
31
0.0
0
LINE
8
KMZ-REVISOES
10
656.0000
20
82.0000
30
0.0
11
831.0000
21
82.0000
31
0.0
0
LINE
8
KMZ-REVISOES
10
656.0000
20
88.0000
30
0.0
11
831.0000
21
88.0000
31
0.0
0
LINE
8
KMZ-REVISOES
10
656.0000
20
94.0000
30
0.0
11
831.0000
21
94.0000
31
0.0
0
LINE
8
KMZ-REVISOES
10
656.0000
20
100.0000
30
0.0
11
831.0000
21
100.0000
31
0.0
0
LINE
8
KMZ-REVISOES
10
656.0000
20
106.0000
30
0.0
11
831.0000
21
106.0000
31
0.0
0
TEXT
8
KMZ-ROTULO
10
657.5000
20
77.0000
30
0.0
40
2.5000
1
REV
0
LINE
8
KMZ-REVISOES
10
671.0000
20
75.0000
30
0.0
11
671.0000
21
112.0000
31
0.0
0
TEXT
8
KMZ-ROTULO
10
672.5000
20
77.0000
30
0.0
40
2.5000
1
DATA
0
LINE
8
KMZ-REVISOES
10
696.0000
20
75.0000
30
0.0
11
696.0000
21
112.0000
31
0.0
0
TEXT
8
KMZ-ROTULO
10
697.5000
20
77.0000
30
0.0
40
2.5000
1
DESCRICAO
0
LINE
8
KMZ-REVISOES
10
761.0000
20
75.0000
30
0.0
11
761.0000
21
112.0000
31
0.0
0
TEXT
8
KMZ-ROTULO
10
762.5000
20
77.0000
30
0.0
40
2.5000
1
ELABOROU
0
LINE
8
KMZ-REVISOES
10
784.0000
20
75.0000
30
0.0
11
784.0000
21
112.0000
31
0.0
0
TEXT
8
KMZ-ROTULO
10
785.5000
20
77.0000
30
0.0
40
2.5000
1
VERIFICOU
0
LINE
8
KMZ-REVISOES
10
807.0000
20
75.0000
30
0.0
11
807.0000
21
112.0000
31
0.0
0
TEXT
8
KMZ-ROTULO
10
808.5000
20
77.0000
30
0.0
40
2.5000
1
APROVOU
0
TEXT
8
KMZ-ROTULO
10
22.0000
20
579.0000
30
0.0
40
3.5000
1
KMZ-PRANCHA-A1
0
ENDSEC
0
EOF
